<svg width="50" height="50" viewBox="0 0 50 50" fill="none" xmlns="http://www.w3.org/2000/svg">
<path fill-rule="evenodd" clip-rule="evenodd" d="M49.1667 24.5833C49.1667 38.1603 38.1603 49.1667 24.5833 49.1667C11.0063 49.1667 0 38.1603 0 24.5833C0 11.0063 11.0063 0 24.5833 0C38.1603 0 49.1667 11.0063 49.1667 24.5833ZM25.4642 18.1485C23.0732 19.1431 18.2943 21.2015 11.1278 24.3239C9.96406 24.7866 9.35444 25.2394 9.29894 25.682C9.20516 26.4302 10.142 26.7248 11.4178 27.126C11.5914 27.1805 11.7712 27.2371 11.9555 27.297C13.2107 27.705 14.8991 28.1823 15.7769 28.2013C16.5731 28.2185 17.4618 27.8902 18.4429 27.2165C25.1388 22.6966 28.5953 20.412 28.8123 20.3628C28.9654 20.328 29.1775 20.2843 29.3212 20.4121C29.465 20.5398 29.4509 20.7818 29.4356 20.8467C29.3428 21.2424 25.6652 24.6614 23.762 26.4308C23.1687 26.9824 22.7479 27.3736 22.6619 27.463C22.4691 27.6631 22.2727 27.8525 22.0839 28.0345C20.9178 29.1586 20.0434 30.0016 22.1324 31.3782C23.1362 32.0397 23.9395 32.5868 24.7409 33.1325C25.6161 33.7285 26.4891 34.323 27.6185 35.0634C27.9063 35.252 28.1811 35.4479 28.4488 35.6388C29.4673 36.3649 30.3824 37.0173 31.5129 36.9132C32.1698 36.8528 32.8483 36.2351 33.1929 34.3929C34.0073 30.0391 35.6081 20.6059 35.9781 16.7187C36.0105 16.3781 35.9697 15.9423 35.937 15.7509C35.9043 15.5596 35.8358 15.287 35.5871 15.0852C35.2926 14.8462 34.8379 14.7958 34.6345 14.7994C33.7099 14.8157 32.2913 15.3089 25.4642 18.1485Z" fill="#FFC21A"/>
</svg>
